<svg width="14" height="14" viewBox="0 0 14 14" fill="none" xmlns="http://www.w3.org/2000/svg">
<g clip-path="url(#clip0_5_106)">
<g opacity="0.5">
<path d="M8.5 9.00004C8.5 11.2092 6.70914 13 4.5 13C2.29086 13 0.5 11.2092 0.5 9.00004C0.5 6.7909 2.29086 5.00004 4.5 5.00004C6.70914 5.00004 8.5 6.7909 8.5 9.00004Z" fill="#FD8D18"/>
<path d="M12.5 2C12.5 3.10457 11.6046 4 10.5 4C9.39543 4 8.5 3.10457 8.5 2C8.5 0.89543 9.39543 0 10.5 0C11.6046 0 12.5 0.89543 12.5 2Z" fill="#FD8D18"/>
</g>
<g opacity="0.75">
<path fill-rule="evenodd" clip-rule="evenodd" d="M9.46088 3.64649C9.7747 4.34042 10.473 4.82325 11.2841 4.82325C12.3887 4.82325 13.2841 3.92782 13.2841 2.82325C13.2841 2.01215 12.8013 1.31382 12.1074 1C12.2209 1.25107 12.2841 1.52978 12.2841 1.82325C12.2841 2.92782 11.3887 3.82325 10.2841 3.82325C9.99066 3.82325 9.71195 3.76004 9.46088 3.64649Z" fill="white" fill-opacity="0.32"/>
<path fill-rule="evenodd" clip-rule="evenodd" d="M2 12.1074C2.72271 13.1445 3.92416 13.8232 5.28414 13.8232C7.49327 13.8232 9.28414 12.0324 9.28414 9.82325C9.28414 8.46327 8.60544 7.26182 7.56827 6.53911C8.01953 7.18672 8.28414 7.97408 8.28414 8.82325C8.28414 11.0324 6.49327 12.8232 4.28414 12.8232C3.43497 12.8232 2.64761 12.5586 2 12.1074Z" fill="white" fill-opacity="0.32"/>
</g>
</g>
<defs>
<clipPath id="clip0_5_106">
<rect width="14" height="14" fill="white"/>
</clipPath>
</defs>
</svg>
