<svg width="27" height="12" viewBox="0 0 27 12" fill="none" xmlns="http://www.w3.org/2000/svg">
<g clip-path="url(#clip0_5_118)">
<path opacity="0.32" d="M0.426697 10.9004L15.6202 3.94089C16.6172 3.48417 16.9544 2.23416 16.3224 1.33795C15.755 0.533547 14.6366 0.354165 13.8462 0.940803L0.426697 10.9004Z" fill="#FD8D18"/>
<path opacity="0.32" d="M7.68246 11.411L23.7936 6.97143C24.8508 6.68009 25.3837 5.50012 24.9031 4.51434C24.4718 3.62954 23.3964 3.27356 22.5223 3.72621L7.68246 11.411Z" fill="#FD8D18"/>
<path opacity="0.16" d="M0.426697 10.9005L16.981 3.3176C17.3166 3.16384 17.7124 3.2333 17.9756 3.49219C18.4468 3.9556 18.2663 4.75277 17.6415 4.96808L0.426697 10.9005Z" fill="white"/>
<path opacity="0.16" d="M7.6825 11.411L24.8758 6.67323C25.408 6.5266 25.9611 6.8254 26.1302 7.35082C26.3243 7.95394 25.9332 8.5877 25.307 8.68456L7.6825 11.411Z" fill="white"/>
</g>
<defs>
<clipPath id="clip0_5_118">
<rect width="27" height="12" fill="white"/>
</clipPath>
</defs>
</svg>
