<svg width="32" height="32" viewBox="0 0 32 32" fill="none" xmlns="http://www.w3.org/2000/svg">
<g clip-path="url(#clip0_707_7560)">
<path d="M9.39433 17.6468L8.71624 16.9687L9.36534 16.2628L21.2639 3.32315L21.5658 2.99486L22.0117 3.0001L28.2908 3.07384L29.3229 3.08596L29.2782 4.11716L28.9991 10.5434L28.9807 10.9659L28.6648 11.247L15.7875 22.7079L15.0828 23.3352L14.4156 22.668L9.39433 17.6468Z" fill="#B6C8E4" stroke="#371C07" stroke-width="2"/>
<path d="M9.39436 17.6467L8.71627 16.9686L9.36537 16.2627L21.2639 3.32309L21.5658 2.9948L22.0118 3.00004L28.2909 3.07378L29.323 3.0859L29.2782 4.1171L28.9991 10.5434L28.9807 10.9658L28.6649 11.247L15.7876 22.7079L15.0828 23.3351L14.4156 22.668L9.39436 17.6467Z" fill="#B6C8E4" stroke="#371C07" stroke-width="2"/>
<path d="M14.5001 14.5001L23.0001 6.00006L24.5001 6.00006L24.5832 7.50814L15.8925 15.7815L14.5001 14.5001Z" fill="#EAEFF7"/>
<path d="M3.08871 27.083L2.38164 26.3759L3.08872 25.6688L8.07098 20.6866L8.25444 20.5031C6.55773 18.9223 4.78298 17.4358 2.94661 16.0579L2.02451 15.3661L2.83966 14.5509L4.35634 13.0343L5.06344 12.3272L5.77055 13.0343L19.0282 26.2919L19.7353 26.999L19.0282 27.7061L17.5115 29.2228L16.6963 30.0379L16.0045 29.1158C14.6214 27.2724 13.1342 25.4983 11.5591 23.8077L11.3756 23.9912L6.39331 28.9735L5.68619 29.6806L4.97908 28.9735L3.08871 27.083Z" fill="#B66302" stroke="#371C07" stroke-width="2"/>
</g>
<defs>
<clipPath id="clip0_707_7560">
<rect width="32" height="32" fill="white"/>
</clipPath>
</defs>
</svg>
