<svg width="20" height="31" viewBox="0 0 20 31" fill="none" xmlns="http://www.w3.org/2000/svg">
<g filter="url(#filter0_i_691_7636)">
<path d="M15.2021 2.5H6.79564C6.34643 2.5 5.95235 2.79954 5.83212 3.23236L2.35212 15.7603C2.17512 16.3975 2.65432 17.028 3.31564 17.028H6.81118C7.36347 17.028 7.81118 17.4757 7.81118 18.028V26.8109C7.81118 27.8255 9.14762 28.1952 9.66902 27.3248L17.3966 14.4256C17.796 13.7591 17.3158 12.9117 16.5388 12.9117H13.4954C12.7644 12.9117 12.2804 12.1529 12.5887 11.49L16.1088 3.92173C16.4171 3.25886 15.9332 2.5 15.2021 2.5Z" fill="#FFA800"/>
</g>
<path d="M15.2021 1.5H6.79564C5.89722 1.5 5.10906 2.09907 4.8686 2.96471L1.38861 15.4927C1.03461 16.7671 1.993 18.028 3.31564 18.028H6.81118V26.8109C6.81118 28.8401 9.48405 29.5794 10.5269 27.8387L18.2545 14.9395C19.0531 13.6065 18.0928 11.9117 16.5388 11.9117H13.4954L17.0155 4.34346C17.6322 3.01772 16.6642 1.5 15.2021 1.5Z" stroke="#371C07" stroke-width="2"/>
<path d="M6.24275 3.28719C6.33283 2.93737 6.64826 2.69287 7.00949 2.69287H14.7889C15.3661 2.69287 15.7493 3.29067 15.5083 3.81518C15.3792 4.09625 15.0982 4.27638 14.7889 4.27638H7.00949C6.4921 4.27638 6.11373 3.78824 6.24275 3.28719Z" fill="#F6E7CB"/>
<path d="M11.3786 13.7297C11.4687 13.3799 11.7841 13.1354 12.1454 13.1354L16.4367 13.1354C17.0139 13.1354 17.3971 13.7332 17.1562 14.2577C17.027 14.5388 16.746 14.7189 16.4367 14.7189H12.1454C11.628 14.7189 11.2496 14.2307 11.3786 13.7297Z" fill="#F6E7CB"/>
<defs>
<filter id="filter0_i_691_7636" x="0.313904" y="-3.5" width="19.2295" height="33.3161" filterUnits="userSpaceOnUse" color-interpolation-filters="sRGB">
<feFlood flood-opacity="0" result="BackgroundImageFix"/>
<feBlend mode="normal" in="SourceGraphic" in2="BackgroundImageFix" result="shape"/>
<feColorMatrix in="SourceAlpha" type="matrix" values="0 0 0 0 0 0 0 0 0 0 0 0 0 0 0 0 0 0 127 0" result="hardAlpha"/>
<feOffset dy="-14"/>
<feGaussianBlur stdDeviation="2"/>
<feComposite in2="hardAlpha" operator="arithmetic" k2="-1" k3="1"/>
<feColorMatrix type="matrix" values="0 0 0 0 1 0 0 0 0 1 0 0 0 0 1 0 0 0 0.25 0"/>
<feBlend mode="normal" in2="shape" result="effect1_innerShadow_691_7636"/>
</filter>
</defs>
</svg>
