<svg width="24" height="23" viewBox="0 0 24 23" fill="none" xmlns="http://www.w3.org/2000/svg">
<path d="M12.2743 20.1959C11.6834 21.0027 11.6832 21.0025 11.6828 21.0023L11.6819 21.0016L11.6787 20.9992L11.6675 20.991L11.6265 20.9606C11.591 20.9342 11.5394 20.8956 11.4732 20.8455C11.3409 20.7453 11.1499 20.5991 10.9118 20.412C10.4359 20.0381 9.7707 19.5003 9.00885 18.8411C7.49134 17.528 5.56377 15.7108 3.98776 13.7331C2.44291 11.7945 1.09642 9.53261 1.00502 7.35027C0.957579 6.21764 1.24905 5.10931 2.00399 4.12561C2.74636 3.1583 3.88351 2.38022 5.41402 1.78569C6.95233 1.18813 8.31309 1.37451 9.42925 2.0593C10.4902 2.71024 11.25 3.7602 11.7871 4.76552C11.9814 5.12923 12.1529 5.49921 12.3035 5.86099C12.4974 5.39369 12.7216 4.91066 12.9775 4.44226C13.547 3.39995 14.3395 2.30565 15.415 1.68955C15.9699 1.37167 16.6049 1.17888 17.3068 1.19711C18.0059 1.21526 18.708 1.44102 19.4037 1.86264C20.7195 2.66013 21.6575 3.59767 22.2347 4.66123C22.8149 5.73041 22.996 6.86394 22.8958 7.99036C22.6996 10.1946 21.4267 12.3866 19.9648 14.2537C18.4834 16.146 16.7046 17.8332 15.3105 19.039C14.6107 19.6443 14.0016 20.1336 13.566 20.4725C13.3482 20.6421 13.1734 20.7743 13.0521 20.8649C12.9914 20.9102 12.9441 20.945 12.9114 20.969L12.8735 20.9967L12.8631 21.0042L12.86 21.0064L12.8591 21.0071C12.8587 21.0074 12.8585 21.0075 12.2743 20.1959ZM12.2743 20.1959L11.6834 21.0027C12.0327 21.2585 12.507 21.2605 12.8585 21.0075L12.2743 20.1959Z" fill="#FF3F32" stroke="#371C07" stroke-width="2" stroke-linejoin="round"/>
<path d="M19.6819 5.0986C19.6819 6.12546 18.6947 5.49893 17.4769 5.49893C16.2592 5.49893 15.272 6.12546 15.272 5.0986C15.272 4.07175 16.2592 3.23932 17.4769 3.23932C18.6947 3.23932 19.6819 4.07175 19.6819 5.0986Z" fill="#FF8888"/>
<path d="M10.4896 7.07254C10.0634 8.31902 8.94858 7.08838 7.25256 6.50848C5.55653 5.92858 3.92159 6.21902 4.34778 4.97254C4.77398 3.72605 6.49438 3.18568 8.1904 3.76558C9.88643 4.34548 10.9158 5.82605 10.4896 7.07254Z" fill="#FF8888"/>
</svg>
