<svg width="16" height="19" viewBox="0 0 16 19" fill="none" xmlns="http://www.w3.org/2000/svg">
<path d="M14.4217 11.1578C14.4217 9.97801 13.6853 8.97021 12.6471 8.56891V7.58148C12.6471 4.96657 10.5131 2.77777 7.90082 2.77777C5.2597 2.77777 3.15454 4.97088 3.15454 7.58148V8.56891C2.11635 8.97021 1.37999 9.97801 1.37999 11.1578V14.5903C1.37999 16.2471 2.72314 17.5903 4.37999 17.5903H11.4217C13.0785 17.5903 14.4217 16.2471 14.4217 14.5903V11.1578ZM7.88669 12.371V12.3711C7.88668 12.371 7.88669 12.371 7.88669 12.371ZM8.67538 7.58148V8.38324H7.12627V7.58148C7.12627 7.13431 7.49046 6.77972 7.90082 6.77972C8.29547 6.77972 8.67538 7.14342 8.67538 7.58148Z" fill="#FFD8A7" stroke="#51280A" stroke-width="2"/>
</svg>
