<svg width="32" height="32" viewBox="0 0 32 32" fill="none" xmlns="http://www.w3.org/2000/svg">
<path d="M15.9266 12.8301L15.9456 12.8454L14.9839 13.5805L14.6202 12.7298L14.4825 12.4078L14.406 12.3667L15.8177 12.2374L16.3124 12.1921L16.5752 11.7704L17.3487 10.5289L17.5392 10.2232L17.7991 10.3637L16.5145 12.0558L15.9266 12.8301ZM6.75323 15.5019L10.5843 21.2808L9.37931 29.0106L9.19942 30.1646H10.3674H20.7357H21.7357V29.1646V22.7353L23.3928 19.4505L23.7616 18.7195L23.1178 18.2137L22.7899 17.9561L23.296 17.2895L26.2022 13.4618C26.8619 12.593 26.7036 11.3557 25.8464 10.6809L25.418 10.3436C24.913 9.94607 24.277 9.8309 23.699 9.97394C23.8304 9.27191 23.5801 8.52353 22.9869 8.0462L22.4614 7.62343C21.9031 7.17418 21.179 7.07452 20.5505 7.29241C20.6238 6.6367 20.3714 5.95879 19.8208 5.51334L19.4496 5.21306C18.8205 4.70411 17.979 4.64041 17.3015 4.97639C17.2914 4.37777 17.0138 3.78992 16.4958 3.4044L16.2316 3.20769C15.3515 2.55264 14.108 2.72881 13.4446 3.60253L14.241 4.20729L13.4446 3.60253L11.7036 5.89524L11.2336 6.51419C10.22 6.40282 9.18916 6.81445 8.53508 7.65742L6.97035 9.67402C5.65525 11.3689 5.56788 13.7138 6.75323 15.5019Z" fill="#FD8D18" stroke="#371C07" stroke-width="2"/>
<path fill-rule="evenodd" clip-rule="evenodd" d="M25.1044 13.2542L25.4058 12.8572C25.7356 12.4228 25.6565 11.8041 25.2279 11.4667L24.7994 11.1294C24.3602 10.7837 23.7227 10.8651 23.3846 11.3103L23.0706 11.7236L25.1044 13.2542ZM21.9946 10.9138L22.5295 10.2092C22.8569 9.77804 22.7817 9.16473 22.36 8.82539L21.8345 8.40261C21.3957 8.04946 20.7518 8.12836 20.4112 8.57703L19.858 9.30572L21.9946 10.9138ZM18.7321 8.45836L19.344 7.69256C19.6874 7.26295 19.6193 6.63674 19.1918 6.29085L18.8207 5.99058C18.382 5.63566 17.7367 5.71378 17.3954 6.16313L16.7723 6.98342L18.7321 8.45836ZM15.6813 6.16236L16.0981 5.61361C16.4343 5.17078 16.3448 4.53867 15.8988 4.20666L15.6345 4.00995C15.1945 3.68243 14.5727 3.77051 14.241 4.20737L13.8201 4.7616L15.6813 6.16236Z" fill="#FFB567"/>
</svg>
