<svg width="12" height="12" viewBox="0 0 12 12" fill="none" xmlns="http://www.w3.org/2000/svg">
<path d="M9.98717 6.95406C10.2934 7.05614 10.5 7.34275 10.5 7.66557V9.08443C10.5 9.59635 9.99848 9.95783 9.51283 9.79594L6 8.625L2.48717 9.79594C2.00152 9.95783 1.5 9.59635 1.5 9.08443L1.5 7.66557C1.5 7.34275 1.70657 7.05614 2.01283 6.95406L6 5.625L9.98717 6.95406Z" fill="#663C1B"/>
<path d="M9.98717 2.45406C10.2934 2.55614 10.5 2.84275 10.5 3.16557V4.58443C10.5 5.09635 9.99848 5.45783 9.51283 5.29594L6 4.125L2.48717 5.29594C2.00152 5.45783 1.5 5.09635 1.5 4.58443L1.5 3.16557C1.5 2.84275 1.70657 2.55614 2.01283 2.45406L6 1.125L9.98717 2.45406Z" fill="#663C1B"/>
</svg>
