<svg width="32" height="33" viewBox="0 0 32 33" fill="none" xmlns="http://www.w3.org/2000/svg">
<rect y="0.5" width="32" height="32" rx="8" fill="#90785B"/>
<path d="M24.668 16.5C24.668 16.224 24.656 15.96 24.632 15.684L26.864 13.992C27.344 13.632 27.476 12.96 27.176 12.432L24.932 8.556C24.632 8.028 23.984 7.812 23.432 8.052L20.852 9.144C20.408 8.832 19.94 8.556 19.448 8.328L19.1 5.556C19.028 4.956 18.512 4.5 17.912 4.5H13.436C12.824 4.5 12.308 4.956 12.236 5.556L11.888 8.328C11.396 8.556 10.928 8.832 10.484 9.144L7.90396 8.052C7.35196 7.812 6.70396 8.028 6.40396 8.556L4.15996 12.444C3.85996 12.972 3.99196 13.632 4.47196 14.004L6.70396 15.696C6.67996 15.96 6.66796 16.224 6.66796 16.5C6.66796 16.776 6.67996 17.04 6.70396 17.316L4.47196 19.008C3.99196 19.368 3.85996 20.04 4.15996 20.568L6.40396 24.444C6.70396 24.972 7.35196 25.188 7.90396 24.948L10.484 23.856C10.928 24.168 11.396 24.444 11.888 24.672L12.236 27.444C12.308 28.044 12.824 28.5 13.424 28.5H17.9C18.5 28.5 19.016 28.044 19.088 27.444L19.436 24.672C19.928 24.444 20.396 24.168 20.84 23.856L23.42 24.948C23.972 25.188 24.62 24.972 24.92 24.444L27.164 20.568C27.464 20.04 27.332 19.38 26.852 19.008L24.62 17.316C24.656 17.04 24.668 16.776 24.668 16.5ZM15.716 20.7C13.4 20.7 11.516 18.816 11.516 16.5C11.516 14.184 13.4 12.3 15.716 12.3C18.032 12.3 19.916 14.184 19.916 16.5C19.916 18.816 18.032 20.7 15.716 20.7Z" fill="#FFD8A7" stroke="#371C07" stroke-width="1.6"/>
</svg>
