<svg width="28" height="26" viewBox="0 0 28 26" fill="none" xmlns="http://www.w3.org/2000/svg">
<path d="M25.9238 12.0092C25.9299 12.1286 25.9359 12.1963 25.9359 12.2648C25.9367 16.545 25.9375 20.826 25.9367 25.1062C25.9367 25.73 25.6686 25.997 25.049 25.997C20.2518 25.997 15.4554 25.997 10.6583 25.997C10.0538 25.997 9.785 25.7232 9.785 25.1115C9.785 21.8317 9.785 18.5512 9.785 15.2714C9.785 14.9093 9.785 14.961 9.48199 14.9603C8.02243 14.9595 6.5621 14.9587 5.10253 14.9587C4.85117 14.9587 4.84965 14.9587 4.84965 15.2075C4.84965 18.4622 4.84965 21.7168 4.84965 24.9715C4.84965 25.0666 4.85117 25.1617 4.84813 25.2568C4.83522 25.6691 4.56032 25.9811 4.15404 25.9894C3.42729 26.0046 2.70054 26.0024 1.97379 25.9887C1.62067 25.9818 1.36248 25.727 1.304 25.377C1.29185 25.3024 1.28806 25.2256 1.28806 25.1503C1.28806 20.8952 1.28806 16.6401 1.28806 12.385C1.28806 12.3127 1.28806 12.2412 1.28806 12.1111C1.4331 12.2123 1.52803 12.28 1.62371 12.3462C1.99126 12.5995 2.22743 12.6026 2.59498 12.3523C3.32021 11.86 4.04772 11.3709 4.76611 10.868C4.92635 10.7554 5.03342 10.7485 5.19593 10.8649C5.84826 11.3313 6.52716 11.7627 7.16734 12.245C7.69285 12.6414 8.02926 12.5691 8.50237 12.2412C9.17064 11.7771 9.83891 11.3138 10.5019 10.8421C10.6302 10.7508 10.7221 10.747 10.8535 10.8391C11.5984 11.3602 12.3503 11.8722 13.099 12.3873C13.402 12.5957 13.6898 12.5874 13.9906 12.3774C14.7416 11.854 15.4972 11.3366 16.2483 10.8124C16.3409 10.7478 16.4093 10.744 16.5019 10.8094C17.1056 11.2331 17.7109 11.6539 18.3184 12.0723C18.4999 12.1971 18.6806 12.3249 18.875 12.4268C19.1575 12.5744 19.4339 12.5326 19.6959 12.3523C20.3824 11.8798 21.0712 11.4104 21.7608 10.944C22.142 10.6861 22.006 10.6854 22.3857 10.9395C22.6796 11.1358 22.9735 11.3313 23.2659 11.5299C23.6767 11.8098 24.0883 12.0883 24.4931 12.3766C24.8029 12.5972 25.1006 12.5851 25.4028 12.3682C25.5608 12.2549 25.7233 12.1476 25.923 12.0099L25.9238 12.0092ZM18.364 19.4314C19.4446 19.4314 20.5252 19.4276 21.6058 19.4352C21.7889 19.4367 21.8428 19.382 21.842 19.2001C21.8352 17.9783 21.8359 16.7565 21.8412 15.5347C21.8412 15.3673 21.8002 15.3034 21.6187 15.3034C19.4453 15.3095 17.2712 15.3095 15.0978 15.3049C14.9292 15.3049 14.8829 15.3574 14.8836 15.5217C14.8897 16.7496 14.8905 17.9783 14.8829 19.2062C14.8813 19.3964 14.9474 19.436 15.1236 19.4345C16.2042 19.4269 17.2848 19.4307 18.3655 19.4307L18.364 19.4314Z" fill="#371C07"/>
<path d="M11.477 7.07851C11.5301 6.18382 11.5932 5.09741 11.66 4.011C11.7283 2.90557 11.8005 1.80014 11.8711 0.695476C11.8817 0.525059 11.9053 0.354642 11.9053 0.184225C11.9053 0.039675 11.9668 0.00315703 12.1012 0.00391782C13.1059 0.00772177 14.1106 0.00696098 15.1153 0.00391782C15.2398 0.00391782 15.2945 0.0381534 15.3021 0.173574C15.3461 1.00131 15.3978 1.82905 15.4464 2.65603C15.5299 4.0711 15.6279 5.48617 15.6909 6.902C15.7258 7.6917 15.7061 8.48369 15.703 9.27491C15.703 9.33805 15.656 9.42402 15.6036 9.4613C14.9482 9.92386 14.2898 10.3819 13.6268 10.833C13.5813 10.8642 13.4765 10.8627 13.4301 10.8307C12.8128 10.413 12.1992 9.99081 11.5916 9.55868C11.5286 9.51379 11.4823 9.40272 11.4815 9.32131C11.4732 8.63813 11.477 7.95418 11.477 7.07851Z" fill="#371C07"/>
<path d="M5.6478 0.017547C5.60528 0.260239 5.57034 0.48239 5.52782 0.70378C5.18229 2.49848 4.86562 4.30003 4.47605 6.08561C4.26341 7.06094 4.30822 8.03551 4.30822 9.01313C4.30822 9.29766 4.23304 9.47189 3.99003 9.62861C3.41213 10.0014 2.85245 10.4039 2.29049 10.8017C2.1743 10.8839 2.09229 10.8847 1.97458 10.8017C1.38149 10.3826 0.783078 9.9702 0.183151 9.5609C0.0624066 9.47873 0.00393274 9.38972 0.00772975 9.23528C0.0191208 8.79859 0.0335494 8.36037 0.00621094 7.9252C-0.0309997 7.33711 0.103414 6.79162 0.290986 6.24081C0.969132 4.2483 1.62753 2.24818 2.28669 0.248827C2.34365 0.0753671 2.41427 -0.00223351 2.61248 4.88615e-05C3.54122 0.0114607 4.47073 0.0046136 5.39948 0.00537439C5.47314 0.00537439 5.5468 0.0129823 5.6478 0.0183078V0.017547Z" fill="#371C07"/>
<path d="M8.78409 0.00548253C9.27087 0.00548253 9.75688 0.0100473 10.2437 0.00320016C10.391 0.000917788 10.4426 0.0427612 10.4328 0.198723C10.3082 2.09309 10.1723 3.9867 10.0743 5.88259C10.0174 6.98725 10.0196 8.09572 10.0029 9.20267C10.0007 9.33657 9.97331 9.42635 9.8594 9.50395C9.23366 9.93151 8.61095 10.3629 7.99279 10.8011C7.86749 10.8901 7.78396 10.881 7.66094 10.7935C7.11037 10.4017 6.55601 10.016 5.99329 9.64165C5.82546 9.52981 5.76243 9.40504 5.77003 9.20572C5.7837 8.82 5.78749 8.43275 5.76547 8.04779C5.72598 7.36917 5.8566 6.71413 5.9857 6.05605C6.21048 4.91486 6.42919 3.77215 6.65093 2.62945C6.81117 1.80399 6.97596 0.979294 7.13087 0.152315C7.15442 0.0260239 7.21745 0.00396095 7.32452 0.00472174C7.8113 0.00700411 8.29731 0.00548253 8.78409 0.00624332V0.00548253Z" fill="#371C07"/>
<path d="M17.2173 7.86298C17.136 6.42965 17.0555 4.99556 16.972 3.56224C16.9074 2.45681 16.8376 1.35214 16.7723 0.246713C16.7578 0.00630289 16.7624 0.00554211 17.0001 0.00554211C17.9349 0.00554211 18.8697 0.0101069 19.8045 0.00173816C19.9724 0.000216581 20.0354 0.0580366 20.065 0.21552C20.2792 1.3529 20.4986 2.48876 20.7181 3.62462C20.9338 4.74222 21.1525 5.85906 21.3681 6.9759C21.3886 7.08089 21.4054 7.18816 21.4054 7.29467C21.4076 7.93374 21.4008 8.5728 21.4054 9.21186C21.4061 9.34881 21.3575 9.43325 21.2474 9.50781C20.6224 9.93614 19.9997 10.3683 19.38 10.8042C19.273 10.8795 19.1925 10.8894 19.0793 10.8095C18.4968 10.3979 17.9098 9.99167 17.3205 9.58922C17.2142 9.51694 17.1732 9.43477 17.1755 9.30696C17.1816 8.82614 17.1778 8.34532 17.1778 7.86374C17.1907 7.86374 17.2028 7.86222 17.2157 7.86146L17.2173 7.86298Z" fill="#371C07"/>
<path d="M21.536 0.0184764C21.6233 0.0131508 21.6909 0.00630373 21.7577 0.00630373C22.4905 0.00554293 23.2241 0.00934689 23.9569 0.00173898C24.1028 0.000217404 24.1696 0.0565159 24.2212 0.184329C25.1409 2.45148 26.0643 4.71788 26.9839 6.98503C27.0189 7.07024 27.0333 7.16914 27.034 7.26196C27.0386 7.92689 27.034 8.59182 27.0401 9.25675C27.0416 9.39293 26.9946 9.47814 26.8837 9.55422C26.2739 9.97113 25.6671 10.3934 25.0611 10.8171C24.9654 10.8841 24.8918 10.8894 24.7915 10.8194C24.203 10.404 23.6114 9.99396 23.0168 9.58693C22.912 9.51542 22.8672 9.43401 22.8695 9.30468C22.8771 8.80484 22.8581 8.30348 22.8801 7.8044C22.9059 7.21555 22.8103 6.64572 22.6963 6.0736C22.4693 4.93166 22.2513 3.78819 22.0296 2.64548C21.8777 1.86263 21.7258 1.08054 21.5747 0.297686C21.558 0.212478 21.5504 0.125748 21.5352 0.0192372L21.536 0.0184764Z" fill="#371C07"/>
</svg>
