<svg width="23" height="25" viewBox="0 0 23 25" fill="none" xmlns="http://www.w3.org/2000/svg">
<path d="M10.0623 0V10.1779H13.028V0H10.0623ZM2.615 0.4006C1.68226 0.293826 0.815014 0.90868 0.624714 1.82803L0.127131 4.23186C0.0507949 4.60065 0.212436 4.97915 0.537254 5.16973C3.28942 6.78453 6.05936 7.74265 8.9384 8.03915V0.900245C6.82931 0.813391 4.72129 0.641712 2.615 0.4006ZM22.3631 1.82463C22.1455 0.915336 21.2658 0.328913 20.3384 0.448301C18.2752 0.713929 16.2127 0.871197 14.1519 0.934104V7.87376C16.773 7.45545 19.5172 6.54234 22.4422 5.1299C22.8167 4.94906 23.0106 4.53012 22.9138 4.12566L22.3631 1.82463ZM21.8611 6.6446C19.1864 7.83821 16.6253 8.61938 14.1519 8.98828V10.1779H14.5865C15.5764 10.1779 16.3789 10.9804 16.3789 11.9703V16.9968C16.3789 17.9868 15.5764 18.7893 14.5865 18.7893H14.1519V19.3136C14.1519 21.383 12.918 22.6865 11.5508 22.6983C10.1836 22.7103 8.9384 21.4149 8.9384 19.3136V18.7892L8.50583 18.7892C7.51584 18.7892 6.71326 17.9867 6.71326 16.9967V11.9703C6.71326 10.9804 7.51578 10.1779 8.50574 10.1779H8.93852V9.14417C6.30592 8.89374 3.75801 8.13038 1.25934 6.8551C1.508 11.4281 1.49682 16.0008 1.19514 20.5737C1.08046 22.3123 2.17908 23.9307 3.88905 24.2649C9.00471 25.2644 14.12 25.2329 19.2356 24.242C20.9293 23.9139 22.04 22.3313 21.9445 20.6087C21.6865 15.954 21.63 11.2995 21.8611 6.6446ZM8.73334 11.3018C8.23836 11.3018 7.8371 11.703 7.8371 12.198V16.7691C7.8371 17.2641 8.23836 17.6654 8.73334 17.6654H14.3589C14.8539 17.6654 15.2551 17.2641 15.2551 16.7691V12.198C15.2551 11.703 14.8539 11.3017 14.3589 11.3017L8.73334 11.3018ZM9.06818 12.3937H14.0241V16.4532H9.06812L9.06818 12.3937ZM10.192 13.5175V15.3293H12.9002V13.5175L10.192 13.5175ZM10.0624 18.7893V19.3136C10.0624 21.0114 10.8634 21.5805 11.5415 21.5746C12.2193 21.5687 13.028 20.9721 13.028 19.3136V18.7892L10.0624 18.7893Z" fill="#FFD8A7"/>
</svg>
