<svg width="32" height="32" viewBox="0 0 32 32" fill="none" xmlns="http://www.w3.org/2000/svg">
<path fill-rule="evenodd" clip-rule="evenodd" d="M12.1227 22.9609L14.3247 20.9438L8.92471 15.997L7.10144 17.9396L8.50001 19.3383L8.87603 19.7143L12.1227 22.9609ZM22.0024 13.9104L16.4427 7.98667L23 1L29.2791 1.07374L29 7.5L22.0024 13.9104ZM0.795837 27.3759L5.77809 22.3937C6.42038 23.0098 7.05175 23.6411 7.66852 24.2841L2.68621 29.2664L0.795837 27.3759ZM1.54677 17.2581L3.06345 15.7414L14.3211 26.999L12.8044 28.5157C9.03929 23.4974 6.51585 20.9863 1.54677 17.2581ZM26.032 23.4586L31.0143 28.4408L29.2537 30.2015L24.2714 25.2192C24.8449 24.6194 25.4329 24.0315 26.032 23.4586ZM27.4938 18.0591L29.0105 19.5758C24.3399 23.0056 23.852 23.4811 20.3884 28.1979L18.8717 26.6812L27.4938 18.0591ZM8.6669 2.2081L24.6012 19.112L22.9485 20.7649L6.59676 4.41316L5.49997 5.50003L22 21.5L19.9246 23.7886L3.09597 8.27902L2.60587 2.06377L8.6669 2.2081Z" fill="#371C07"/>
</svg>
