<svg width="29" height="27" viewBox="0 0 29 27" fill="none" xmlns="http://www.w3.org/2000/svg">
<path fill-rule="evenodd" clip-rule="evenodd" d="M14.7455 13.757L20.6177 10.7803L16.7185 3.08665L10.8463 6.06334L14.7455 13.757ZM19.5887 6.64475L19.0465 5.57595L20.3058 4.93835L20.8478 6.0078L21.3883 7.07354L20.1297 7.71253L19.5887 6.64475ZM12.3881 11.2109L12.3884 11.2107L12.0191 10.4827L11.6493 9.7529L11.649 9.75309L11.4767 9.41347L2.57984 13.9223L2.75255 14.263L3.49211 15.7217L3.66481 16.0623L12.5602 11.5506L12.3881 11.2109ZM16.4861 2.14002C17.0431 1.85761 17.2658 1.17712 16.9835 0.620018C16.7012 0.0627596 16.0204 -0.160012 15.4632 0.122477L9.19842 3.29858C8.64134 3.58101 8.41864 4.26153 8.70097 4.81866C8.98338 5.37593 9.6641 5.59869 10.2213 5.31619L16.4861 2.14002ZM2.45548 15.783L2.54682 15.9631C2.81069 16.4836 2.6027 17.1194 2.08227 17.3832C1.56185 17.6471 0.926062 17.4391 0.662174 16.9187L0.570787 16.7385L0.570761 16.7385L0.45191 16.5041L0.302142 16.2087L0.302176 16.2087L0.114395 15.8383C-0.149434 15.3178 0.058584 14.682 0.579021 14.4182C1.09946 14.1544 1.73525 14.3624 1.9991 14.8828L2.18686 15.2532L2.45548 15.783ZM21.388 11.8086C21.9451 11.5262 22.6256 11.7487 22.9081 12.3057C23.1908 12.8629 22.9681 13.5436 22.4109 13.8261L16.1462 17.0024C15.5892 17.2849 14.9086 17.0623 14.6261 16.5053C14.3435 15.9481 14.5661 15.2674 15.1233 14.9849L21.388 11.8086ZM13.1287 22.2903C13.1287 21.7381 13.5764 21.2903 14.1287 21.2903H25.1287C25.681 21.2903 26.1287 21.7381 26.1287 22.2903V23.2903H13.1287V22.2903ZM11.1287 25.2903C11.1287 24.7381 11.5764 24.2903 12.1287 24.2903H27.1287C27.681 24.2903 28.1287 24.7381 28.1287 25.2903V26.2903H11.1287V25.2903Z" fill="#371C07"/>
</svg>
