<svg width="28" height="26" viewBox="0 0 28 26" fill="none" xmlns="http://www.w3.org/2000/svg">
<path fill-rule="evenodd" clip-rule="evenodd" d="M10.4278 26C9.68013 26 9.07402 25.3939 9.07402 24.6462V24.6462C9.07402 23.8985 9.68013 23.2924 10.4278 23.2924H12.4478V17.72C11.0842 16.8336 9.88219 15.7592 8.86695 14.543C5.4003 14.7222 0.424357 11.7165 0.0255752 2.64895C-0.00310223 1.99688 0.529117 1.46355 1.18182 1.46355H5.13V1.18182C5.13 0.529118 5.65912 0 6.31182 0H21.6882C22.3409 0 22.87 0.529118 22.87 1.18182V1.46355H26.8182C27.4709 1.46355 28.0031 1.99688 27.9744 2.64895C27.5757 11.7165 22.5997 14.7222 19.1331 14.543C18.1178 15.7592 16.9158 16.8336 15.5522 17.72V23.2924H17.5722C18.3199 23.2924 18.926 23.8985 18.926 24.6462V24.6462C18.926 25.3939 18.3199 26 17.5722 26H10.4278ZM20.6291 12.4245C25.1846 12.0224 25.6168 6.07815 25.8047 3.65888H22.8587C22.7569 6.36812 21.9743 10.1505 20.6291 12.4245ZM5.14135 3.65888C5.24309 6.36812 6.02568 10.1505 7.3709 12.4245C2.81545 12.0224 2.38323 6.07815 2.19533 3.65888H5.14135Z" fill="#371C07"/>
</svg>
