<svg width="31" height="30" viewBox="0 0 31 30" fill="none" xmlns="http://www.w3.org/2000/svg">
<path fill-rule="evenodd" clip-rule="evenodd" d="M11.3269 21.9609L13.5288 19.9438L8.12887 14.997L6.3056 16.9396L7.70417 18.3383L8.08019 18.7143L11.3269 21.9609ZM21.2065 12.9104L15.6469 6.98667L22.2042 0L28.4833 0.0737393L28.2042 6.5L21.2065 12.9104ZM0 26.3759L4.98226 21.3937C5.62454 22.0098 6.25592 22.6411 6.87268 23.2841L1.89037 28.2664L0 26.3759ZM0.750932 16.2581L2.26761 14.7414L13.5252 25.999L12.0085 27.5157C8.24345 22.4974 5.72001 19.9863 0.750932 16.2581ZM25.2362 22.4586L30.2184 27.4408L28.4578 29.2015L23.4755 24.2192C24.0491 23.6194 24.6371 23.0315 25.2362 22.4586ZM26.6979 17.0591L28.2146 18.5758C23.5441 22.0056 23.0562 22.4811 19.5926 27.1979L18.0759 25.6812L26.6979 17.0591ZM7.87106 1.2081L23.8054 18.112L22.1526 19.7649L5.80093 3.41316L4.70413 4.50003L21.2041 20.5L19.1288 22.7886L2.30014 7.27902L1.81003 1.06377L7.87106 1.2081Z" fill="#FFD8A7"/>
</svg>
